<svg xmlns="http://www.w3.org/2000/svg" viewBox="6 94 420 420" role="img" aria-label="Ehundu"><defs><clipPath id="corte"><path d="M0 0 L432 0 L312 646 L0 646 Z"/></clipPath></defs><g clip-path="url(#corte)"><path d="M468.92 251.88C473.64 251 478.12 241.96 482 239.23C482.29 239.46 482.59 239.69 482.88 239.93C489.41 237.53 488.88 240.3 491.69 244.74C490.52 247.47 486.95 252.42 483.9 253.09C483.37 251.99 482.83 250.9 482.29 249.8C479.19 250.72 475.93 255.16 476.4 258.37C473.83 259.95 471.38 263.77 471.52 266.81C469.12 267.78 468.16 270.99 466.91 273.12C464.32 277.55 461.43 281.83 458.79 286.25C448.78 303.05 438.41 319.67 427.95 336.2C421.35 346.63 414.34 356.78 407.41 366.99C401.65 375.48 395.51 383.78 389.16 391.83C357.93 431.42 311.63 476.67 256.34 467.93C246.04 466.3 236.2 463.37 226.68 459.16C214.65 453.84 204.01 446.08 194.56 436.97C182.78 425.61 173.24 411.19 167.16 396.01C164.97 390.56 162.97 384.97 161.37 379.32C160.47 376.14 160.24 372.43 158.52 369.61C150.9 370.65 143.23 374.73 136.26 377.84C115.64 387.02 95.25 400.51 81.89 419.05C74.92 428.72 68.5 441.04 72.16 453.25C74.31 460.41 79.57 466.51 86.19 469.83C89.53 471.5 93.79 472.29 96.66 474.62C75.42 477.11 54.02 463.17 50.32 441.55C48.23 429.3 51.96 417.02 58.14 406.5C73.26 380.81 99.38 364.83 126.16 353.62C132.97 350.76 140.06 348.42 147.09 346.13C150.07 345.16 153.72 344.75 156.36 343.06C157.81 338.8 157.47 324.81 158.21 318.87C159.96 304.87 163.59 290.94 168.24 277.64C188.13 220.72 230.32 170.07 285.57 144.84C308.96 134.17 342.14 126.2 364.05 144.21C391.58 166.83 380.13 208.73 365.14 235.05C328.27 299.78 265.2 333.22 197.34 356.72C195.07 364.34 201.54 383.27 204.69 390.86C221 430.27 261.35 455.07 303.39 438.16C325.17 429.4 343.07 414.61 359.8 398.44C389.43 369.79 413.81 336.02 436.71 301.91C444.64 290.1 452.1 278.01 459.93 266.14C462.82 261.75 465.21 255.43 468.92 251.88ZM197.93 329.69C207.64 328.51 228.29 318.15 237.53 313.33C277.81 292.31 311.69 260.63 335.12 221.57C342.6 209.09 350.36 194.29 352.07 179.64C352.88 172.75 352.2 164.72 346.63 159.85C341.21 155.1 333.65 155.52 327.04 156.71C312.38 159.37 298.33 168.22 286.91 177.5C251.99 205.92 224.59 244.81 208.74 286.94C205.12 296.56 202.08 306.22 199.69 316.22C198.73 320.24 196.83 325.67 197.93 329.69Z" fill="#C24D3D" fill-rule="evenodd" stroke="#C24D3D" stroke-width="14" stroke-linejoin="round"/></g></svg>
